<svg fill="#FFFFFF" xmlns="http://www.w3.org/2000/svg"  viewBox="0 0 50 50" width="50px" height="50px"><path d="M 24.849609 10 C 11.077609 10 10 11.077609 10 24.849609 L 10 25.150391 C 10 38.922391 11.077609 40 24.849609 40 L 25.150391 40 C 38.922391 40 40 38.922391 40 25.150391 L 40 24.849609 C 40 11.077609 38.922391 10 25.150391 10 L 24.849609 10 z M 23.751953 11 L 26.248047 11 C 38.074047 11 39 11.925953 39 23.751953 L 39 26.248047 C 39 38.074047 38.074047 39 26.248047 39 L 23.751953 39 C 11.925953 39 11 38.074047 11 26.248047 L 11 23.751953 C 11 11.925953 11.925953 11 23.751953 11 z M 33.496094 15 C 32.668094 15.002 31.998 15.674906 32 16.503906 C 32.002 17.331906 32.674906 18.002 33.503906 18 C 34.331906 17.998 35.002 17.325094 35 16.496094 C 34.998 15.668094 34.325094 14.998 33.496094 15 z M 24.980469 17 C 20.562469 17.011 16.989 20.601531 17 25.019531 C 17.01 29.437531 20.601531 33.011 25.019531 33 C 29.437531 32.99 33.011 29.398469 33 24.980469 C 32.99 20.562469 29.398469 16.989 24.980469 17 z M 24.982422 18 C 28.848422 17.991 31.991 21.116422 32 24.982422 C 32.009 28.848422 28.883578 31.991 25.017578 32 C 21.151578 32.009 18.009 28.883578 18 25.017578 C 17.991 21.151578 21.116422 18.009 24.982422 18 z"/></svg>