<svg fill="#FFFFFF" xmlns="http://www.w3.org/2000/svg"  viewBox="0 0 50 50" width="50px" height="50px"><path d="M44,14.215c-1.045,1.562-2.368,2.935-3.892,4.035c0.015,0.335,0.022,0.671,0.022,1.008c0,10.302-7.839,22.181-22.179,22.181	c-4.403,0-10.141-1.542-11.951-3.502c0.611,0.073,1.232,0.11,1.86,0.11c3.654,0,7.015-1.247,9.682-3.338	c-3.411-0.063-6.29-2.318-7.283-5.415c1.552,0.244,3.521-0.134,3.521-0.134s-6.096-1.046-6.254-7.741	c1.763,1.022,3.531,0.975,3.531,0.975s-3.516-2.164-3.467-6.488c0.029-2.55,1.054-3.921,1.054-3.921	c6.661,8.202,16.069,8.146,16.069,8.146s-0.202-1.165-0.202-1.776c0-4.304,3.49-7.796,7.796-7.796c2.242,0,4.268,0.947,5.69,2.463	c1.777-0.351,3.446-1,4.951-1.893c-0.68,2.723-3.427,4.313-3.427,4.313S41.873,15.182,44,14.215z M10.047,38.908	c14.752,5.627,28.812-4.718,29.083-19.649c0.002-0.127-0.031-0.564-0.021-0.939c0.013-0.461,0.163-0.692,0.487-0.945	c0.324-0.253,0.734-0.551,1.084-0.855c0.117-0.101,0.052-0.292-0.078-0.287c-1.104,0.04-1.883-0.008-2.413-0.033	c-0.326-0.016-0.521-0.459-0.242-0.689c0.497-0.409,1.259-1.006,2.168-1.796c0.128-0.111,0.077-0.234-0.081-0.183	c-0.661,0.211-1.316,0.365-1.773,0.461c-0.374,0.078-0.664,0.03-0.916-0.249c-1.114-1.23-3.016-2.184-5.037-2.184	c-4.475,0-6.795,3.742-6.795,6.796c0,0.587,0.109,1.233,0.209,1.763c0.148,0.786-0.204,1.098-1.015,1.049	c-2.902-0.175-10.162-1.244-15.787-7.352c-1.261,4.22,1.376,6.861,3.052,8.096c0.637,0.47,0.56,1.186-0.416,1.306	c-0.751,0.093-1.722,0.098-2.863-0.221c0.548,3.57,4.494,5.011,6.296,5.53c0.408,0.118,0.639,0.669-0.091,1.11	c-0.627,0.379-1.595,0.745-3.028,0.794c1.392,2.38,4.244,3.004,6.247,3.293c0.887,0.128,1.253,1.004,0.3,1.734	C16.634,36.824,13.685,38.517,10.047,38.908z"/></svg>