<svg fill="#FFFFFF" xmlns="http://www.w3.org/2000/svg"  viewBox="0 0 50 50" width="50px" height="50px"><path d="M 17.722656 10 C 10.560656 10 10 10.560656 10 17.722656 L 10 32.277344 C 10 39.439344 10.560656 40 17.722656 40 L 32.277344 40 C 39.439344 40 40 39.439344 40 32.277344 L 40 17.769531 C 40 10.563531 39.436469 10 32.230469 10 L 17.722656 10 z M 17 11 L 33 11 C 38.565 11 39 11.435 39 17 L 39 33 C 39 38.565 38.565 39 33 39 L 17 39 C 11.435 39 11 38.565 11 33 L 11 17 C 11 11.435 11.435 11 17 11 z M 17.876953 14.878906 C 16.654953 14.878906 15.664062 15.866891 15.664062 17.087891 C 15.664062 18.308891 16.653953 19.300781 17.876953 19.300781 C 19.095953 19.300781 20.085937 18.308891 20.085938 17.087891 C 20.085937 15.868891 19.095953 14.878906 17.876953 14.878906 z M 29.449219 20.742188 C 27.604219 20.742187 26.368328 21.755844 25.861328 22.714844 L 25.810547 22.714844 L 25.810547 21.046875 L 22.171875 21.046875 L 22.171875 33.25 L 25.962891 33.25 L 25.962891 27.212891 C 25.962891 25.621891 26.264281 24.078125 28.238281 24.078125 C 30.183281 24.078125 30.210938 25.898453 30.210938 27.314453 L 30.210938 33.25 L 34 33.25 L 34 26.556641 C 34 23.270641 33.289219 20.742188 29.449219 20.742188 z M 15.978516 21.046875 L 15.978516 33.25 L 19.771484 33.25 L 19.771484 21.046875 L 15.978516 21.046875 z"/></svg>